<?xml version="1.0" encoding="UTF-8"?> <svg xmlns="http://www.w3.org/2000/svg" id="_576f4d77-34be-4dcf-a919-e900239f05c8" data-name=" 576f4d77-34be-4dcf-a919-e900239f05c8" viewBox="0 0 188.78 189.07"><defs><style>.cls-1{fill:#61cbe9;}.cls-2{fill:#fff;}.cls-3{fill:#fddf3f;}.cls-4{fill:none;}.cls-5{fill:#19355a;}</style></defs><title>hr-and-payroll-med</title><rect class="cls-1" x="26.32" y="26.09" width="136.62" height="136.62"></rect><circle class="cls-2" cx="94.25" cy="79.42" r="34.92"></circle><path class="cls-3" d="M81.51,72s-.14-11.83,6-12.84S103.76,59,103.76,59l3.43,12.12-7.56,1-9.84-3.86Z"></path><path class="cls-3" d="M69.53,104.24l.57-5.7,14.55-5,8.56,6.56,12-7.28,12.41,5.4.71,5.86s-13.12,9.69-22.39,9.55S73,109.52,69.53,104.24Z"></path><path class="cls-4" d="M155.39,27.3H34.09a6.36,6.36,0,0,0-6.34,6.35v121.9a6.37,6.37,0,0,0,6.34,6.35h121.3a6.35,6.35,0,0,0,6.34-6.35V33.65A6.35,6.35,0,0,0,155.39,27.3Zm-40,119.45a3,3,0,0,1-2.09,1H75.48a3,3,0,0,1-2.88-2.86,3,3,0,0,1,.76-2.19,3.09,3.09,0,0,1,2.1-1h37.88a3,3,0,0,1,2.09,5.05Zm8.87-12.5H64.68a3,3,0,0,1-2.12-5.05,3,3,0,0,1,2.09-1h59.81a3,3,0,0,1,2.86,3.19A3,3,0,0,1,124.3,134.25Zm-30.3-17a38.18,38.18,0,0,1-25.32-9.6L68,107a37.74,37.74,0,0,1-9.32-13.34,1.74,1.74,0,0,1-.1-.23,4.07,4.07,0,0,1-.13-.5,37.75,37.75,0,0,1-2.62-13.89A38.23,38.23,0,1,1,94,117.28Z"></path><path class="cls-4" d="M113.73,99.25l-8.85-3.89L95.75,103a3.09,3.09,0,0,1-3.88,0l-9.13-7.62-8.82,4a2.37,2.37,0,0,0-1.41,2.17v1.4a32,32,0,0,0,14.74,7.55l.58.12h0l.55.1A32,32,0,0,0,115.11,103l0-1.62A2.39,2.39,0,0,0,113.73,99.25Z"></path><path class="cls-4" d="M93.81,81.37a7.82,7.82,0,0,0,7.81-7.32,21.87,21.87,0,0,1-11.48-3.48L86,72.83v.75A7.8,7.8,0,0,0,93.81,81.37Z"></path><path class="cls-4" d="M104.29,67.9a7.81,7.81,0,0,0-7.78-7.51h-5.4a7.82,7.82,0,0,0-7.73,6.89l5.07-2.8a4.27,4.27,0,0,1,1.74-.38,4.1,4.1,0,0,1,2.23.67A16.22,16.22,0,0,0,104.29,67.9Z"></path><path class="cls-4" d="M119.38,59.45a32.08,32.08,0,0,0-51.8,37.83,8.38,8.38,0,0,1,3.88-3.56L84,88.14V83.36a13.75,13.75,0,0,1-3.64-6.44A13.84,13.84,0,0,1,91.11,54.33h5.4a13.85,13.85,0,0,1,10.74,22.59,13.94,13.94,0,0,1-3.65,6.44v4.78l12.53,5.57a8.42,8.42,0,0,1,4,3.67,31.92,31.92,0,0,0-.39-37.33A2.65,2.65,0,0,1,119.38,59.45Z"></path><path class="cls-4" d="M97.57,86.92a14,14,0,0,1-7.49,0v1.43a5.71,5.71,0,0,1-1.56,3.92l5.29,4.4,5.29-4.39a5.82,5.82,0,0,1-1.53-3.94Z"></path><path class="cls-5" d="M155.39,22.17H34.09A11.51,11.51,0,0,0,22.61,33.65v121.9A11.51,11.51,0,0,0,34.09,167h121.3a11.51,11.51,0,0,0,11.48-11.48V33.65A11.51,11.51,0,0,0,155.39,22.17Zm7.34,133.38a7.35,7.35,0,0,1-7.34,7.35H34.09a7.37,7.37,0,0,1-7.34-7.35V33.65a7.36,7.36,0,0,1,7.34-7.35h121.3a7.35,7.35,0,0,1,7.34,7.35Z"></path><path class="cls-5" d="M124.41,129.19H64.68a2,2,0,0,0,0,4.05h59.45a2,2,0,1,0,.26-4.05Z"></path><path class="cls-5" d="M113.29,142.7H75.48a2.06,2.06,0,0,0-1.89,2.14,2,2,0,0,0,1.92,1.92h37.8a2,2,0,0,0,0-4.06Z"></path><path class="cls-5" d="M94,41.84A37.22,37.22,0,0,0,59.36,92.68a4.23,4.23,0,0,0,.11.43c0,.06.05.11.07.16a36.88,36.88,0,0,0,9.09,13l.71.64A37.22,37.22,0,1,0,94,41.84Zm22.11,61.65-.17.15a33.08,33.08,0,0,1-27.73,8l-.57-.1h0l-.5-.1a33.25,33.25,0,0,1-15.47-8l-.16-.15v-1.85a3.39,3.39,0,0,1,2-3.09l9.39-4.21,9.61,8a2,2,0,0,0,2.6,0l9.61-8,9.41,4.15a3.39,3.39,0,0,1,2,3.09ZM85,72.23l5.15-2.82.25.16A20.83,20.83,0,0,0,102,73.05h.65v.51a8.8,8.8,0,1,1-17.6,0ZM82.32,69v-.85a8.81,8.81,0,0,1,8.78-8.77h5.4a8.8,8.8,0,0,1,8.78,8.78v.59l-.42.06a16.18,16.18,0,0,1-2.69.22,17.18,17.18,0,0,1-10.33-3.45,3.12,3.12,0,0,0-2.95-.22Zm17.85,22.91.17.15v.48L93.81,98,87,92.31l.44-.39a4.72,4.72,0,0,0,1.64-3.57V85.54l.66.22a12.83,12.83,0,0,0,8.17,0l.66-.22v2.81A4.77,4.77,0,0,0,100.17,91.92Zm20.25,6.73-.52.7-.34-.81a7.47,7.47,0,0,0-3.84-3.92L103,89a.68.68,0,0,1-.4-.62V82.94l.15-.15a12.81,12.81,0,0,0,3.55-6.22l0-.11.07-.09a12.84,12.84,0,0,0-9.89-21h-5.4a12.84,12.84,0,0,0-9.89,21l.07.09,0,.11a12.85,12.85,0,0,0,3.55,6.22l.15.15v5.41a.69.69,0,0,1-.4.61L71.87,94.63a7.43,7.43,0,0,0-3.75,3.82l-.35.8-.51-.71a32.76,32.76,0,0,1-6.35-19.47A33.13,33.13,0,0,1,94,46h0a32.91,32.91,0,0,1,26.21,12.91l.07.12a1.89,1.89,0,0,0,.23.45A32.91,32.91,0,0,1,120.42,98.65Z"></path></svg> 